<svg width="56" height="56" viewBox="0 0 56 56" fill="none" xmlns="http://www.w3.org/2000/svg">
<path fill-rule="evenodd" clip-rule="evenodd" d="M38.4929 24.284C39.5056 24.284 40.3266 25.105 40.3266 26.1177V28.3047C40.3266 29.3174 39.5056 30.1384 38.4929 30.1384C37.4802 30.1384 36.6592 29.3174 36.6592 28.3047V26.1177C36.6592 25.105 37.4802 24.284 38.4929 24.284Z" fill="#51CFFF"/>
<path fill-rule="evenodd" clip-rule="evenodd" d="M33.5695 22.2606C34.2837 22.9786 34.2806 24.1396 33.5626 24.8538L32.0076 26.4006C31.2896 27.1148 30.1286 27.1117 29.4144 26.3937C28.7002 25.6757 28.7033 24.5147 29.4213 23.8005L30.9762 22.2537C31.6942 21.5395 32.8553 21.5426 33.5695 22.2606Z" fill="#51CFFF"/>
<path fill-rule="evenodd" clip-rule="evenodd" d="M25.6593 17.3637C25.6593 16.351 26.4803 15.53 27.493 15.53H29.6928C30.7055 15.53 31.5265 16.351 31.5265 17.3637C31.5265 18.3764 30.7055 19.1974 29.6928 19.1974H27.493C26.4803 19.1974 25.6593 18.3764 25.6593 17.3637Z" fill="#51CFFF"/>
<path fill-rule="evenodd" clip-rule="evenodd" d="M29.4144 8.33274C30.1286 7.61474 31.2896 7.61166 32.0076 8.32586L33.5626 9.87261C34.2806 10.5868 34.2837 11.7478 33.5695 12.4658C32.8553 13.1838 31.6942 13.1869 30.9762 12.4727L29.4213 10.926C28.7033 10.2118 28.7002 9.05074 29.4144 8.33274Z" fill="#51CFFF"/>
<path fill-rule="evenodd" clip-rule="evenodd" d="M38.4929 4.58806C39.5056 4.58806 40.3266 5.40903 40.3266 6.42175V8.60993C40.3266 9.62265 39.5056 10.4436 38.4929 10.4436C37.4802 10.4436 36.6592 9.62265 36.6592 8.60993V6.42175C36.6592 5.40903 37.4802 4.58806 38.4929 4.58806Z" fill="#51CFFF"/>
<path fill-rule="evenodd" clip-rule="evenodd" d="M47.5703 8.33274C48.2845 9.05074 48.2814 10.2118 47.5634 10.926L46.0085 12.4727C45.2905 13.1869 44.1294 13.1838 43.4152 12.4658C42.701 11.7478 42.7041 10.5868 43.4221 9.87261L44.9771 8.32586C45.6951 7.61166 46.8561 7.61474 47.5703 8.33274Z" fill="#51CFFF"/>
<path fill-rule="evenodd" clip-rule="evenodd" d="M45.4597 17.3637C45.4597 16.351 46.2807 15.53 47.2934 15.53H49.492C50.5047 15.53 51.3257 16.351 51.3257 17.3637C51.3257 18.3764 50.5047 19.1974 49.492 19.1974H47.2934C46.2807 19.1974 45.4597 18.3764 45.4597 17.3637Z" fill="#51CFFF"/>
<path fill-rule="evenodd" clip-rule="evenodd" d="M43.4152 22.2606C44.1294 21.5426 45.2905 21.5395 46.0085 22.2537L47.5634 23.8005C48.2814 24.5147 48.2845 25.6757 47.5703 26.3937C46.8561 27.1117 45.6951 27.1148 44.9771 26.4006L43.4221 24.8538C42.7041 24.1396 42.701 22.9786 43.4152 22.2606Z" fill="#51CFFF"/>
<path d="M28.0004 41.2352C35.5218 41.2352 41.6192 35.1379 41.6192 27.6164C41.6192 20.095 35.5218 13.9977 28.0004 13.9977C20.479 13.9977 14.3817 20.095 14.3817 27.6164C14.3817 35.1379 20.479 41.2352 28.0004 41.2352Z" fill="#FFCD1F"/>
<path d="M35.566 38.2076H20.4353V43.2517H35.566V38.2076Z" fill="#FFCD1F"/>
<path d="M20.4333 40.508C20.4333 40.4328 20.4631 40.3607 20.5163 40.3076C20.5695 40.2544 20.6416 40.2245 20.7168 40.2245H35.2823C35.3575 40.2245 35.4296 40.2544 35.4828 40.3076C35.536 40.3607 35.5658 40.4328 35.5658 40.508V49.0637C35.5658 49.6651 35.3269 50.242 34.9016 50.6673C34.4763 51.0926 33.8994 51.3316 33.2979 51.3316H22.6955C22.094 51.3316 21.5172 51.0926 21.0919 50.6673C20.6666 50.242 20.4276 49.6651 20.4276 49.0637L20.4333 40.508Z" fill="#FF725B"/>
<path d="M26.7794 31.4808H29.2177V40.2242H26.7794V31.4808Z" fill="#FF725B"/>
<path d="M27.9989 33.959C29.6397 33.959 30.9698 32.6289 30.9698 30.9881C30.9698 29.3473 29.6397 28.0171 27.9989 28.0171C26.3581 28.0171 25.028 29.3473 25.028 30.9881C25.028 32.6289 26.3581 33.959 27.9989 33.959Z" fill="#FF725B"/>
</svg>
