<svg width="56" height="56" viewBox="0 0 56 56" fill="none" xmlns="http://www.w3.org/2000/svg">
<rect x="4.66663" y="39.6957" width="46.6667" height="11.6667" rx="1" fill="#FFCD1F"/>
<path d="M14.4303 32.1601L23.6156 41.3454L50.5226 14.4384C51.0417 13.9185 51.3333 13.2138 51.3333 12.4791C51.3333 11.7443 51.0417 11.0396 50.5226 10.5197L45.256 5.2556C44.9989 4.99795 44.6935 4.79354 44.3573 4.65407C44.0211 4.5146 43.6606 4.44281 43.2966 4.44281C42.9326 4.44281 42.5722 4.5146 42.236 4.65407C41.8998 4.79354 41.5944 4.99795 41.3373 5.2556L14.4303 32.1601Z" fill="#FF725B"/>
<path d="M11.4644 39.218L14.4296 32.1593L23.6124 41.3446L16.1119 44.0727C15.7521 42.9662 15.1474 41.955 14.3427 41.1144C13.5381 40.2739 12.5542 39.6257 11.4644 39.218Z" fill="#FFE8D8"/>
<path d="M8.83132 45.483L11.4646 39.218C12.5545 39.6257 13.5383 40.2739 14.343 41.1144C15.1477 41.955 15.7524 42.9662 16.1122 44.0728L9.70742 46.4015C9.5809 46.4471 9.44387 46.4549 9.31299 46.424C9.18212 46.3931 9.06303 46.3249 8.97022 46.2276C8.87741 46.1303 8.81487 46.0081 8.79021 45.8759C8.76555 45.7437 8.77983 45.6072 8.83132 45.483Z" fill="#FF725B"/>
<path d="M46.9422 34.3395C48.4261 33.5493 50.2577 34.2127 50.8482 35.7542C51.1837 36.63 51.951 37.2699 52.8828 37.4508L52.9743 37.4685C54.5847 37.7811 55.5222 39.434 54.9605 40.9699C54.6375 41.8531 54.8093 42.8407 55.4029 43.5607C56.4401 44.8191 56.087 46.729 54.6464 47.5515C53.8238 48.0212 53.3064 48.8809 53.2848 49.814C53.2471 51.4382 51.7512 52.666 50.1332 52.4007L50.0522 52.3874C49.1178 52.2342 48.1627 52.5695 47.5261 53.2742C46.4143 54.505 44.4742 54.5059 43.3963 53.2757L43.3567 53.2305C42.7369 52.5232 41.7913 52.1807 40.8465 52.3214L40.7862 52.3303C39.1432 52.575 37.6765 51.3403 37.664 49.7022C37.6568 48.7644 37.1602 47.9032 36.3504 47.4247L36.2802 47.3832C34.878 46.5546 34.573 44.6746 35.6376 43.4223C36.2492 42.7029 36.4365 41.7236 36.1305 40.8451C35.5946 39.3067 36.6128 37.6377 38.2442 37.3459C39.1776 37.1789 39.9721 36.5414 40.3222 35.668C40.931 34.1491 42.7524 33.4955 44.1806 34.2835L44.2617 34.3283C45.0882 34.7842 46.0991 34.7884 46.9422 34.3395Z" fill="#59E8B5"/>
<path d="M49.967 40.6636C49.8174 40.5162 49.6159 40.4337 49.4059 40.4337C49.1959 40.4337 48.9944 40.5162 48.8448 40.6636L43.8374 45.7592L42.2023 44.1047C42.13 44.0238 42.0419 43.9584 41.9434 43.9127C41.8449 43.867 41.7381 43.8419 41.6295 43.839C41.5209 43.8361 41.4129 43.8554 41.3121 43.8957C41.2113 43.936 41.1198 43.9965 41.0432 44.0735C40.9666 44.1505 40.9065 44.2423 40.8667 44.3433C40.8269 44.4443 40.8081 44.5524 40.8116 44.661C40.815 44.7695 40.8406 44.8762 40.8868 44.9745C40.933 45.0728 40.9988 45.1606 41.0801 45.2325L43.286 47.4742C43.4315 47.6226 43.6296 47.7078 43.8374 47.7113C43.9405 47.7102 44.0422 47.6886 44.1369 47.6479C44.2315 47.6072 44.3172 47.5482 44.3889 47.4742L49.956 41.8024C50.1033 41.6501 50.1866 41.4471 50.1887 41.2352C50.1907 41.0233 50.1114 40.8187 49.967 40.6636Z" fill="#009AA4" stroke="#009AA4"/>
</svg>
