<svg width="56" height="56" viewBox="0 0 56 56" fill="none" xmlns="http://www.w3.org/2000/svg">
<g clip-path="url(#clip0_1741_21355)">
<path d="M37.5578 34.7249H18.2808C17.1298 34.7249 16.1968 35.6656 16.1968 36.8259V41.3536C16.1968 42.514 17.1298 43.4546 18.2808 43.4546H37.5578C38.7087 43.4546 39.6418 42.514 39.6418 41.3536V36.8259C39.6418 35.6656 38.7087 34.7249 37.5578 34.7249Z" fill="#7A87FF"/>
<path d="M37.5578 45.2339H18.2808C17.1298 45.2339 16.1968 46.1745 16.1968 47.3349V51.8626C16.1968 53.0229 17.1298 53.9636 18.2808 53.9636H37.5578C38.7087 53.9636 39.6418 53.0229 39.6418 51.8626V47.3349C39.6418 46.1745 38.7087 45.2339 37.5578 45.2339Z" fill="#BCC3FF"/>
<path d="M44.4985 9.30927H11.2483C10.0973 9.30927 9.16431 10.2499 9.16431 11.4103V30.8446C9.16431 32.005 10.0973 32.9456 11.2483 32.9456H44.4985C45.6494 32.9456 46.5825 32.005 46.5825 30.8446V11.4103C46.5825 10.2499 45.6494 9.30927 44.4985 9.30927Z" fill="#4255FF"/>
<path fill-rule="evenodd" clip-rule="evenodd" d="M14.6968 17.188C14.6968 16.3596 15.3684 15.688 16.1968 15.688H39.6418C40.4702 15.688 41.1418 16.3596 41.1418 17.188C41.1418 18.0164 40.4702 18.688 39.6418 18.688H16.1968C15.3684 18.688 14.6968 18.0164 14.6968 17.188Z" fill="white"/>
<path fill-rule="evenodd" clip-rule="evenodd" d="M14.6968 25.0668C14.6968 24.2383 15.3684 23.5668 16.1968 23.5668H32.6083C33.4367 23.5668 34.1083 24.2383 34.1083 25.0668C34.1083 25.8952 33.4367 26.5668 32.6083 26.5668H16.1968C15.3684 26.5668 14.6968 25.8952 14.6968 25.0668Z" fill="white"/>
</g>
<path d="M44.1168 19.2922C48.702 19.2922 52.419 15.5752 52.419 10.99C52.419 6.40483 48.702 2.68781 44.1168 2.68781C39.5316 2.68781 35.8146 6.40483 35.8146 10.99C35.8146 15.5752 39.5316 19.2922 44.1168 19.2922Z" fill="#FFCD1F"/>
<path d="M48.729 17.4465H39.5051V20.5215H48.729V17.4465Z" fill="#FFCD1F"/>
<path d="M39.5038 18.8489C39.5038 18.8031 39.522 18.7591 39.5544 18.7267C39.5868 18.6943 39.6308 18.6761 39.6766 18.6761H48.5561C48.6019 18.6761 48.6458 18.6943 48.6783 18.7267C48.7107 18.7591 48.7289 18.8031 48.7289 18.8489V24.0646C48.7289 24.4312 48.5832 24.7829 48.3239 25.0422C48.0647 25.3015 47.713 25.4471 47.3463 25.4471H40.8829C40.5162 25.4471 40.1646 25.3015 39.9053 25.0422C39.646 24.7829 39.5004 24.4312 39.5004 24.0646L39.5038 18.8489Z" fill="#FF725B"/>
<defs>
<clipPath id="clip0_1741_21355">
<rect width="44.5455" height="49.6364" fill="white" transform="translate(9.16406 4.58185)"/>
</clipPath>
</defs>
</svg>
