<svg width="56" height="56" viewBox="0 0 56 56" fill="none" xmlns="http://www.w3.org/2000/svg">
<path d="M9.07581 13.9997C9.07581 11.4223 11.1651 9.33301 13.7425 9.33301H29.6403C30.9122 9.33301 32.129 9.85214 33.0092 10.7703L42.778 20.9609C43.6108 21.8298 44.0758 22.9868 44.0758 24.1903V46.6663C44.0758 49.2436 41.9865 51.333 39.4091 51.333H13.7425C11.1651 51.333 9.07581 49.2436 9.07581 46.6663V13.9997Z" fill="#51CFFF"/>
<path fill-rule="evenodd" clip-rule="evenodd" d="M4.72937 18.6098C4.72937 17.5971 5.54097 16.7762 6.54213 16.7762H11.6095C12.6106 16.7762 13.4222 17.5971 13.4222 18.6098C13.4222 19.6224 12.6106 20.4434 11.6095 20.4434H6.54213C5.54097 20.4434 4.72937 19.6224 4.72937 18.6098Z" fill="#4255FF"/>
<path fill-rule="evenodd" clip-rule="evenodd" d="M4.72937 30.604C4.72937 29.5913 5.54097 28.7704 6.54213 28.7704H11.6095C12.6106 28.7704 13.4222 29.5913 13.4222 30.604C13.4222 31.6166 12.6106 32.4376 11.6095 32.4376H6.54213C5.54097 32.4376 4.72937 31.6166 4.72937 30.604Z" fill="#4255FF"/>
<path fill-rule="evenodd" clip-rule="evenodd" d="M4.72937 42.5988C4.72937 41.5861 5.54097 40.7652 6.54213 40.7652H11.6095C12.6106 40.7652 13.4222 41.5861 13.4222 42.5988C13.4222 43.6114 12.6106 44.4324 11.6095 44.4324H6.54213C5.54097 44.4324 4.72937 43.6114 4.72937 42.5988Z" fill="#4255FF"/>
<path d="M22.937 4.67291H46.7703C49.3477 4.67291 51.437 6.76225 51.437 9.33958V42.0062C51.437 44.5836 49.3477 46.6729 46.7703 46.6729H22.937V4.67291Z" fill="#E372FF"/>
<path d="M16.437 7.00625C16.437 5.71758 17.4817 4.67291 18.7703 4.67291H22.9995V46.6729H18.7703C17.4817 46.6729 16.437 45.6282 16.437 44.3396V7.00625Z" fill="#9900BE"/>
<path d="M27.3427 11.3493C27.3427 10.705 27.865 10.1827 28.5093 10.1827H45.8635C46.5078 10.1827 47.0302 10.705 47.0302 11.3493V22.2026C47.0302 22.847 46.5078 23.3693 45.8635 23.3693H28.5093C27.865 23.3693 27.3427 22.847 27.3427 22.2026V11.3493Z" fill="#F7D9FF"/>
<path fill-rule="evenodd" clip-rule="evenodd" d="M29.7294 14.4203C29.7294 13.6747 30.359 13.0703 31.1356 13.0703H43.2373C44.014 13.0703 44.6436 13.6747 44.6436 14.4203C44.6436 15.1659 44.014 15.7703 43.2373 15.7703H31.1356C30.359 15.7703 29.7294 15.1659 29.7294 14.4203Z" fill="#9900BE"/>
<path fill-rule="evenodd" clip-rule="evenodd" d="M29.7294 19.1317C29.7294 18.3862 30.359 17.7817 31.1356 17.7817H43.2373C44.014 17.7817 44.6436 18.3862 44.6436 19.1317C44.6436 19.8773 44.014 20.4817 43.2373 20.4817H31.1356C30.359 20.4817 29.7294 19.8773 29.7294 19.1317Z" fill="#9900BE"/>
</svg>
